<?xml version="1.0" encoding="utf-8"?>
<!DOCTYPE svg PUBLIC "-//W3C//DTD SVG 1.1//EN" "http://www.w3.org/Graphics/SVG/1.1/DTD/svg11.dtd">
<svg version="1.1" id="Layer_1" xmlns="http://www.w3.org/2000/svg" xmlns:xlink="http://www.w3.org/1999/xlink" x="0px" y="0px"
	 viewBox="0 75 200 50" enable-background="new 0 75 200 50" xml:space="preserve">
<g>
	<g enable-background="new    ">
		<g>
			<polygon fill="#864F06" points="33.9,102.1 33.6,104.3 30.3,104.3 27,104.3 27.3,102.1 27.7,100 30.9,100 34.2,100 			"/>
		</g>
		<g>
			<polygon fill="#864F06" points="33,108.6 32.7,110.8 29.4,110.8 26,110.8 26.3,108.6 26.7,106.4 30,106.4 33.3,106.4 			"/>
		</g>
		<g>
			<polygon fill="#864F06" points="37.5,100 38.6,100 38.3,102.1 38.1,104.3 36.9,104.3 35.8,104.3 35.7,105.3 35.6,106.4 
				36.7,106.4 37.8,106.4 37.5,108.6 37.2,110.8 36.1,110.8 35,110.8 34.8,111.9 34.7,113 27.9,113 21.2,113 22.4,105.3 23.6,98 
				30.2,98 36.7,98 36.6,99 36.4,100 			"/>
		</g>
		<g>
			<polygon fill="#F28E0A" points="16.5,89.6 24.3,89.6 36.7,98 30.2,98 			"/>
		</g>
		<g>
			<polygon fill="#F28E0A" points="8.7,89.6 16.5,89.6 30.2,98 23.6,98 			"/>
		</g>
		<g>
			<polygon fill="#F28E0A" points="17.3,92 21.3,92 34.2,100 30.9,100 			"/>
		</g>
		<g>
			<polygon fill="#F28E0A" points="25.2,92 26.5,92 38.6,100 37.5,100 			"/>
		</g>
		<g>
			<polygon fill="#F28E0A" points="23.9,92 25.2,92 37.5,100 36.4,100 			"/>
		</g>
		<g>
			<polygon fill="#F28E0A" points="13.4,92 17.3,92 30.9,100 27.7,100 			"/>
		</g>
		<g>
			<polygon fill="#F28E0A" points="24.4,97 36.9,104.3 35.8,104.3 23.1,97 			"/>
		</g>
		<g>
			<polygon fill="#F28E0A" points="16.5,97 30.3,104.3 27,104.3 12.5,97 			"/>
		</g>
		<g>
			<polygon fill="#F28E0A" points="25.7,97 38.1,104.3 36.9,104.3 24.4,97 			"/>
		</g>
		<g>
			<polygon fill="#F28E0A" points="20.4,97 33.6,104.3 30.3,104.3 16.5,97 			"/>
		</g>
		<g>
			<polygon fill="#F28E0A" points="22.6,99.5 24,99.5 36.7,106.4 35.6,106.4 			"/>
		</g>
		<g>
			<polygon fill="#F28E0A" points="16,99.5 20,99.5 33.3,106.4 30,106.4 			"/>
		</g>
		<g>
			<polygon fill="#F28E0A" points="24,99.5 25.3,99.5 37.8,106.4 36.7,106.4 			"/>
		</g>
		<g>
			<polygon fill="#F28E0A" points="12,99.5 16,99.5 30,106.4 26.7,106.4 			"/>
		</g>
		<g>
			<polygon fill="#F28E0A" points="23.1,104.7 36.1,110.8 35,110.8 21.8,104.7 			"/>
		</g>
		<g>
			<polygon fill="#F28E0A" points="19.1,104.7 32.7,110.8 29.4,110.8 15.1,104.7 			"/>
		</g>
		<g>
			<polygon fill="#F28E0A" points="15.1,104.7 29.4,110.8 26,110.8 11,104.7 			"/>
		</g>
		<g>
			<polygon fill="#F28E0A" points="24.5,104.7 37.2,110.8 36.1,110.8 23.1,104.7 			"/>
		</g>
		<g>
			<polygon fill="#F28E0A" points="13.3,107.3 27.9,113 21.2,113 5.1,107.3 			"/>
		</g>
		<g>
			<polygon fill="#F28E0A" points="21.4,107.3 34.7,113 27.9,113 13.3,107.3 			"/>
		</g>
		<path fill="#6666CC" d="M25.3,91.8H24l0.2-1.2l0.2-1.2h-7.8H8.8l-1.7,8.7l-1.8,9h8.1h8.1l0.2-1.3l0.2-1.3h1.3h1.3l0.4-2.6l0.4-2.5
			h-1.3h-1.3l0.2-1.4l0.2-1.4h1.3h1.3l0.4-2.6l0.4-2.5H25.3z M19.5,102.1l-0.4,2.6h-4h-4l0.5-2.6l0.5-2.5h4h4L19.5,102.1z
			 M20.8,94.3l-0.4,2.6h-3.9h-4l0.5-2.6l0.5-2.5h3.9h3.9L20.8,94.3z"/>
	</g>
	<g enable-background="new    ">
		<g>
			<polygon fill="#864F06" points="56.3,98 56.2,99 56.1,100 50.7,100 45.2,100 44.9,102.1 44.7,104.3 49.1,104.3 53.5,104.3 
				53.4,105.3 53.3,106.4 48.9,106.4 44.4,106.4 44.2,108.6 43.9,110.8 49.5,110.8 55.1,110.8 55,111.9 54.9,113 47,113 39.2,113 
				40.1,105.3 41.1,98 48.7,98 			"/>
		</g>
		<g>
			<polygon fill="#F28E0A" points="38.6,89.6 47.7,89.6 56.3,98 48.7,98 			"/>
		</g>
		<g>
			<polygon fill="#F28E0A" points="29.5,89.6 38.6,89.6 48.7,98 41.1,98 			"/>
		</g>
		<g>
			<polygon fill="#F28E0A" points="40.9,92 50.7,100 45.2,100 34.3,92 			"/>
		</g>
		<g>
			<polygon fill="#F28E0A" points="47.4,92 56.1,100 50.7,100 40.9,92 			"/>
		</g>
		<g>
			<polygon fill="#F28E0A" points="38.9,97 44.2,97 53.5,104.3 49.1,104.3 			"/>
		</g>
		<g>
			<polygon fill="#F28E0A" points="33.6,97 38.9,97 49.1,104.3 44.7,104.3 			"/>
		</g>
		<g>
			<polygon fill="#F28E0A" points="43.9,99.5 53.3,106.4 48.9,106.4 38.6,99.5 			"/>
		</g>
		<g>
			<polygon fill="#F28E0A" points="38.6,99.5 48.9,106.4 44.4,106.4 33.3,99.5 			"/>
		</g>
		<g>
			<polygon fill="#F28E0A" points="32.5,104.7 39.2,104.7 49.5,110.8 43.9,110.8 			"/>
		</g>
		<g>
			<polygon fill="#F28E0A" points="39.2,104.7 46,104.7 55.1,110.8 49.5,110.8 			"/>
		</g>
		<g>
			<polygon fill="#F28E0A" points="45.7,107.3 54.9,113 47,113 36.2,107.3 			"/>
		</g>
		<g>
			<polygon fill="#F28E0A" points="36.2,107.3 47,113 39.2,113 26.7,107.3 			"/>
		</g>
		<g>
			<polygon fill="#6666CC" points="47.7,89.6 47.5,90.8 47.4,92 40.9,92 34.3,92 34,94.5 33.6,97 38.9,97 44.2,97 44.1,98.3 
				43.9,99.5 38.6,99.5 33.3,99.5 32.9,102.1 32.5,104.7 39.2,104.7 46,104.7 45.8,106 45.7,107.3 36.2,107.3 26.7,107.3 28.2,98.3 
				29.5,89.6 38.6,89.6 			"/>
		</g>
	</g>
	<g enable-background="new    ">
		<g>
			<polygon fill="#864F06" points="73.8,98 73.5,102.1 73.3,106.4 72.2,106.4 71.1,106.4 71,107.5 70.9,108.6 69.8,108.6 
				68.7,108.6 68.6,109.7 68.5,110.8 67.4,110.8 66.3,110.8 66.2,111.9 66.1,113 65,113 63.9,113 64,111.9 64.1,110.8 63,110.8 
				61.8,110.8 61.9,109.7 62,108.6 60.9,108.6 59.8,108.6 59.9,107.5 60,106.4 58.9,106.4 57.7,106.4 58.1,102.1 58.5,98 60.7,98 
				62.9,98 62.6,101.1 62.4,104.3 63.5,104.3 64.6,104.3 64.5,105.3 64.4,106.4 65.5,106.4 66.6,106.4 66.7,105.3 66.8,104.3 
				67.9,104.3 69,104.3 69.2,101.1 69.4,98 71.6,98 			"/>
		</g>
		<g>
			<polygon fill="#F28E0A" points="65.9,89.6 68.5,89.6 73.8,98 71.6,98 			"/>
		</g>
		<g>
			<polygon fill="#F28E0A" points="50.3,89.6 52.9,89.6 60.7,98 58.5,98 			"/>
		</g>
		<g>
			<polygon fill="#F28E0A" points="52.9,89.6 55.5,89.6 62.9,98 60.7,98 			"/>
		</g>
		<g>
			<polygon fill="#F28E0A" points="63.3,89.6 65.9,89.6 71.6,98 69.4,98 			"/>
		</g>
		<g>
			<polygon fill="#F28E0A" points="56.1,97 57.4,97 64.6,104.3 63.5,104.3 			"/>
		</g>
		<g>
			<polygon fill="#F28E0A" points="60,97 61.4,97 67.9,104.3 66.8,104.3 			"/>
		</g>
		<g>
			<polygon fill="#F28E0A" points="61.4,97 62.7,97 69,104.3 67.9,104.3 			"/>
		</g>
		<g>
			<polygon fill="#F28E0A" points="54.8,97 56.1,97 63.5,104.3 62.4,104.3 			"/>
		</g>
		<g>
			<polygon fill="#F28E0A" points="67.8,99.5 73.3,106.4 72.2,106.4 66.5,99.5 			"/>
		</g>
		<g>
			<polygon fill="#F28E0A" points="50.5,99.5 58.9,106.4 57.7,106.4 49.2,99.5 			"/>
		</g>
		<g>
			<polygon fill="#F28E0A" points="51.9,99.5 60,106.4 58.9,106.4 50.5,99.5 			"/>
		</g>
		<g>
			<polygon fill="#F28E0A" points="58.5,99.5 59.8,99.5 66.6,106.4 65.5,106.4 			"/>
		</g>
		<g>
			<polygon fill="#F28E0A" points="57.2,99.5 58.5,99.5 65.5,106.4 64.4,106.4 			"/>
		</g>
		<g>
			<polygon fill="#F28E0A" points="66.5,99.5 72.2,106.4 71.1,106.4 65.1,99.5 			"/>
		</g>
		<g>
			<polygon fill="#F28E0A" points="65,102.1 70.9,108.6 69.8,108.6 63.6,102.1 			"/>
		</g>
		<g>
			<polygon fill="#F28E0A" points="54.3,102.1 62,108.6 60.9,108.6 52.9,102.1 			"/>
		</g>
		<g>
			<polygon fill="#F28E0A" points="52.9,102.1 60.9,108.6 59.8,108.6 51.6,102.1 			"/>
		</g>
		<g>
			<polygon fill="#F28E0A" points="63.6,102.1 69.8,108.6 68.7,108.6 62.3,102.1 			"/>
		</g>
		<g>
			<polygon fill="#F28E0A" points="60.7,104.7 67.4,110.8 66.3,110.8 59.4,104.7 			"/>
		</g>
		<g>
			<polygon fill="#F28E0A" points="62.1,104.7 68.5,110.8 67.4,110.8 60.7,104.7 			"/>
		</g>
		<g>
			<polygon fill="#F28E0A" points="56.7,104.7 64.1,110.8 63,110.8 55.4,104.7 			"/>
		</g>
		<g>
			<polygon fill="#F28E0A" points="55.4,104.7 63,110.8 61.8,110.8 54,104.7 			"/>
		</g>
		<g>
			<polygon fill="#F28E0A" points="59.2,107.3 66.1,113 65,113 57.8,107.3 			"/>
		</g>
		<g>
			<polygon fill="#F28E0A" points="57.8,107.3 65,113 63.9,113 56.5,107.3 			"/>
		</g>
		<g>
			<polygon fill="#6666CC" points="68.5,89.6 68.2,94.5 67.8,99.5 66.5,99.5 65.1,99.5 65,100.8 65,102.1 63.6,102.1 62.3,102.1 
				62.2,103.4 62.1,104.7 60.7,104.7 59.4,104.7 59.3,106 59.2,107.3 57.8,107.3 56.5,107.3 56.6,106 56.7,104.7 55.4,104.7 
				54,104.7 54.2,103.4 54.3,102.1 52.9,102.1 51.6,102.1 51.7,100.8 51.9,99.5 50.5,99.5 49.2,99.5 49.8,94.5 50.3,89.6 52.9,89.6 
				55.5,89.6 55.1,93.3 54.8,97 56.1,97 57.4,97 57.3,98.3 57.2,99.5 58.5,99.5 59.8,99.5 60,98.3 60,97 61.4,97 62.7,97 63,93.3 
				63.3,89.6 65.9,89.6 			"/>
		</g>
	</g>
	<g enable-background="new    ">
		<g>
			<polygon fill="#864F06" points="91.2,98 91,105.3 90.9,113 88.6,113 86.4,113 86.5,109.7 86.6,106.4 85.5,106.4 84.4,106.4 
				84.3,107.5 84.3,108.6 83.2,108.6 82.1,108.6 82.1,107.5 82.2,106.4 81,106.4 79.9,106.4 79.8,109.7 79.6,113 77.4,113 75.1,113 
				75.6,105.3 75.9,98 78.1,98 80.3,98 80.3,99 80.2,100 81.3,100 82.4,100 82.4,101.1 82.3,102.1 83.4,102.1 84.5,102.1 
				84.6,101.1 84.6,100 85.7,100 86.8,100 86.8,99 86.8,98 89,98 			"/>
		</g>
		<g>
			<polygon fill="#F28E0A" points="86.7,89.6 89.3,89.6 91.2,98 89,98 			"/>
		</g>
		<g>
			<polygon fill="#F28E0A" points="71.1,89.6 73.7,89.6 78.1,98 75.9,98 			"/>
		</g>
		<g>
			<polygon fill="#F28E0A" points="73.7,89.6 76.3,89.6 80.3,98 78.1,98 			"/>
		</g>
		<g>
			<polygon fill="#F28E0A" points="84.1,89.6 86.7,89.6 89,98 86.8,98 			"/>
		</g>
		<g>
			<polygon fill="#F28E0A" points="77.5,92 78.8,92 82.4,100 81.3,100 			"/>
		</g>
		<g>
			<polygon fill="#F28E0A" points="82.7,92 84,92 86.8,100 85.7,100 			"/>
		</g>
		<g>
			<polygon fill="#F28E0A" points="76.2,92 77.5,92 81.3,100 80.2,100 			"/>
		</g>
		<g>
			<polygon fill="#F28E0A" points="81.4,92 82.7,92 85.7,100 84.6,100 			"/>
		</g>
		<g>
			<polygon fill="#F28E0A" points="80,94.5 81.3,94.5 84.5,102.1 83.4,102.1 			"/>
		</g>
		<g>
			<polygon fill="#F28E0A" points="78.7,94.5 80,94.5 83.4,102.1 82.3,102.1 			"/>
		</g>
		<g>
			<polygon fill="#F28E0A" points="82.4,99.5 85.5,106.4 84.4,106.4 81.1,99.5 			"/>
		</g>
		<g>
			<polygon fill="#F28E0A" points="78.4,99.5 82.2,106.4 81,106.4 77.1,99.5 			"/>
		</g>
		<g>
			<polygon fill="#F28E0A" points="77.1,99.5 81,106.4 79.9,106.4 75.8,99.5 			"/>
		</g>
		<g>
			<polygon fill="#F28E0A" points="83.7,99.5 86.6,106.4 85.5,106.4 82.4,99.5 			"/>
		</g>
		<g>
			<polygon fill="#F28E0A" points="81,102.1 84.3,108.6 83.2,108.6 79.6,102.1 			"/>
		</g>
		<g>
			<polygon fill="#F28E0A" points="79.6,102.1 83.2,108.6 82.1,108.6 78.3,102.1 			"/>
		</g>
		<g>
			<polygon fill="#6666CC" points="89.3,89.6 89.1,98.3 88.9,107.3 86.2,107.3 83.5,107.3 83.6,103.4 83.7,99.5 82.4,99.5 
				81.1,99.5 81,100.8 81,102.1 79.6,102.1 78.3,102.1 78.4,100.8 78.4,99.5 77.1,99.5 75.8,99.5 75.6,103.4 75.4,107.3 72.7,107.3 
				70,107.3 70.5,98.3 71.1,89.6 73.7,89.6 76.3,89.6 76.2,90.8 76.2,92 77.5,92 78.8,92 78.7,93.3 78.7,94.5 80,94.5 81.3,94.5 
				81.4,93.3 81.4,92 82.7,92 84,92 84.1,90.8 84.1,89.6 86.7,89.6 			"/>
		</g>
		<g>
			<polygon fill="#F28E0A" points="72.7,107.3 77.4,113 75.1,113 70,107.3 			"/>
		</g>
		<g>
			<polygon fill="#F28E0A" points="88.9,107.3 90.9,113 88.6,113 86.2,107.3 			"/>
		</g>
		<g>
			<polygon fill="#F28E0A" points="86.2,107.3 88.6,113 86.4,113 83.5,107.3 			"/>
		</g>
		<g>
			<polygon fill="#F28E0A" points="75.4,107.3 79.6,113 77.4,113 72.7,107.3 			"/>
		</g>
	</g>
	<g enable-background="new    ">
		<g>
			<path fill="#864F06" d="M177.6,100h1.1l0.5,3.2l0.5,3.2h-2.2h-2.2l0.2,1.1l0.2,1.1h1.1h1.1l0.2,1.1l0.2,1.1h1.1h1.1l0.2,1.1
				l0.2,1.1h-3.4h-3.4l-0.2-1.1l-0.2-1.1h-1.1h-1.1l-0.2-1.1l-0.2-1.1h-1.1H169l0.3,2.2l0.3,2.2h-2.2h-2.2l-1-7.6l-1-7.4h6.5h6.5
				l0.2,1l0.2,1.1H177.6z M174.7,102.1l-0.3-2.1h-3.3h-3.3l0.4,3.2l0.4,3.2h2.2h2.2l-0.2-1.1l-0.2-1.1h1.1h1.1L174.7,102.1"/>
		</g>
		<g>
			<polygon fill="#F28E0A" points="175.1,89.6 182.9,89.6 169.7,98 163.1,98 			"/>
		</g>
		<g>
			<polygon fill="#F28E0A" points="182.9,89.6 190.8,89.6 176.2,98 169.7,98 			"/>
		</g>
		<g>
			<polygon fill="#F28E0A" points="191.2,92 192.5,92 177.6,100 176.6,100 			"/>
		</g>
		<g>
			<polygon fill="#F28E0A" points="184.7,92 171.1,100 167.8,100 180.8,92 			"/>
		</g>
		<g>
			<polygon fill="#F28E0A" points="192.5,92 193.8,92 178.7,100 177.6,100 			"/>
		</g>
		<g>
			<polygon fill="#F28E0A" points="188.6,92 174.4,100 171.1,100 184.7,92 			"/>
		</g>
		<g>
			<polygon fill="#F28E0A" points="188.2,97 189.5,97 175,104.3 173.9,104.3 			"/>
		</g>
		<g>
			<polygon fill="#F28E0A" points="186.9,97 188.2,97 173.9,104.3 172.8,104.3 			"/>
		</g>
		<g>
			<polygon fill="#F28E0A" points="184.7,99.5 187.4,99.5 173.1,106.4 170.9,106.4 			"/>
		</g>
		<g>
			<polygon fill="#F28E0A" points="192.7,99.5 177.6,106.4 175.3,106.4 190,99.5 			"/>
		</g>
		<g>
			<polygon fill="#F28E0A" points="182,99.5 184.7,99.5 170.9,106.4 168.7,106.4 			"/>
		</g>
		<g>
			<polygon fill="#F28E0A" points="195.3,99.5 179.8,106.4 177.6,106.4 192.7,99.5 			"/>
		</g>
		<g>
			<polygon fill="#F28E0A" points="185.1,102.1 171.2,108.6 170.1,108.6 183.8,102.1 			"/>
		</g>
		<g>
			<polygon fill="#F28E0A" points="191.8,102.1 193.2,102.1 177.9,108.6 176.8,108.6 			"/>
		</g>
		<g>
			<polygon fill="#F28E0A" points="190.5,102.1 191.8,102.1 176.8,108.6 175.7,108.6 			"/>
		</g>
		<g>
			<polygon fill="#F28E0A" points="183.8,102.1 170.1,108.6 169,108.6 182.5,102.1 			"/>
		</g>
		<g>
			<polygon fill="#F28E0A" points="195,104.7 196.4,104.7 180.5,110.8 179.4,110.8 			"/>
		</g>
		<g>
			<polygon fill="#F28E0A" points="188.3,104.7 173.8,110.8 172.7,110.8 187,104.7 			"/>
		</g>
		<g>
			<polygon fill="#F28E0A" points="187,104.7 172.7,110.8 171.6,110.8 185.6,104.7 			"/>
		</g>
		<g>
			<polygon fill="#F28E0A" points="193.7,104.7 195,104.7 179.4,110.8 178.3,110.8 			"/>
		</g>
		<g>
			<polygon fill="#F28E0A" points="180.7,107.3 167.4,113 165.1,113 178,107.3 			"/>
		</g>
		<g>
			<polygon fill="#F28E0A" points="183.4,107.3 169.6,113 167.4,113 180.7,107.3 			"/>
		</g>
		<g>
			<polygon fill="#F28E0A" points="192.8,107.3 177.5,113 174.1,113 188.8,107.3 			"/>
		</g>
		<g>
			<path fill="#6666CC" d="M192.5,92h1.3l0.7,3.7l0.8,3.8h-2.7H190l0.2,1.3l0.2,1.3h1.3h1.3l0.3,1.3l0.3,1.3h1.3h1.3l0.3,1.3
				l0.3,1.3h-4h-4l-0.2-1.3l-0.2-1.3H187h-1.3l-0.2-1.3l-0.2-1.3h-1.3h-1.3l0.4,2.6l0.4,2.6h-2.7H178l-1.4-9l-1.4-8.7h7.8h7.8
				l0.2,1.2l0.2,1.2L192.5,92L192.5,92z M189.1,94.5l-0.5-2.5h-3.9h-3.9l0.6,3.7l0.6,3.8h2.6h2.7l-0.2-1.3l-0.2-1.3h1.3h1.3
				L189.1,94.5"/>
		</g>
		<g>
			<polygon fill="#F28E0A" points="196.9,107.3 180.9,113 177.5,113 192.8,107.3 			"/>
		</g>
	</g>
	<g enable-background="new    ">
		<g>
			<polygon fill="#864F06" points="161,98 161.1,99 161.2,100 155.8,100 150.3,100 150.5,102.1 150.7,104.3 155.1,104.3 
				159.6,104.3 159.7,105.3 159.8,106.4 155.4,106.4 150.9,106.4 151.2,108.6 151.4,110.8 157,110.8 162.6,110.8 162.7,111.9 
				162.9,113 155,113 147.1,113 146.4,105.3 145.7,98 153.3,98 			"/>
		</g>
		<g>
			<polygon fill="#F28E0A" points="163.4,89.6 172.5,89.6 161,98 153.3,98 			"/>
		</g>
		<g>
			<polygon fill="#F28E0A" points="154.3,89.6 163.4,89.6 153.3,98 145.7,98 			"/>
		</g>
		<g>
			<polygon fill="#F28E0A" points="166.4,92 155.8,100 150.3,100 159.9,92 			"/>
		</g>
		<g>
			<polygon fill="#F28E0A" points="172.9,92 161.2,100 155.8,100 166.4,92 			"/>
		</g>
		<g>
			<polygon fill="#F28E0A" points="165.8,97 171,97 159.6,104.3 155.1,104.3 			"/>
		</g>
		<g>
			<polygon fill="#F28E0A" points="160.5,97 165.8,97 155.1,104.3 150.7,104.3 			"/>
		</g>
		<g>
			<polygon fill="#F28E0A" points="171.4,99.5 159.8,106.4 155.4,106.4 166.1,99.5 			"/>
		</g>
		<g>
			<polygon fill="#F28E0A" points="166.1,99.5 155.4,106.4 150.9,106.4 160.8,99.5 			"/>
		</g>
		<g>
			<polygon fill="#F28E0A" points="161.4,104.7 168.2,104.7 157,110.8 151.4,110.8 			"/>
		</g>
		<g>
			<polygon fill="#F28E0A" points="168.2,104.7 174.9,104.7 162.6,110.8 157,110.8 			"/>
		</g>
		<g>
			<polygon fill="#F28E0A" points="175.3,107.3 162.9,113 155,113 165.8,107.3 			"/>
		</g>
		<g>
			<polygon fill="#F28E0A" points="165.8,107.3 155,113 147.1,113 156.4,107.3 			"/>
		</g>
		<g>
			<polygon fill="#6666CC" points="172.5,89.6 172.7,90.8 172.9,92 166.4,92 159.9,92 160.2,94.5 160.5,97 165.8,97 171,97 
				171.2,98.3 171.4,99.5 166.1,99.5 160.8,99.5 161.1,102.1 161.4,104.7 168.2,104.7 174.9,104.7 175.1,106 175.3,107.3 
				165.8,107.3 156.4,107.3 155.3,98.3 154.3,89.6 163.4,89.6 			"/>
		</g>
	</g>
	<g enable-background="new    ">
		<g>
			<polygon fill="#864F06" points="143.5,98 143.6,99 143.7,100 141.5,100 139.3,100 139.9,106.4 140.4,113 138.1,113 135.9,113 
				135.4,106.4 135,100 132.8,100 130.6,100 130.5,99 130.4,98 137,98 			"/>
		</g>
		<g>
			<polygon fill="#F28E0A" points="143.9,89.6 151.7,89.6 143.5,98 137,98 			"/>
		</g>
		<g>
			<polygon fill="#F28E0A" points="136.1,89.6 143.9,89.6 137,98 130.4,98 			"/>
		</g>
		<g>
			<polygon fill="#F28E0A" points="141.6,92 135,100 132.8,100 138.9,92 			"/>
		</g>
		<g>
			<polygon fill="#F28E0A" points="149.4,92 141.5,100 139.3,100 146.8,92 			"/>
		</g>
		<g>
			<polygon fill="#F28E0A" points="138.9,92 132.8,100 130.6,100 136.3,92 			"/>
		</g>
		<g>
			<polygon fill="#F28E0A" points="152,92 143.7,100 141.5,100 149.4,92 			"/>
		</g>
		<g>
			<polygon fill="#F28E0A" points="148.3,107.3 140.4,113 138.1,113 145.6,107.3 			"/>
		</g>
		<g>
			<polygon fill="#F28E0A" points="145.6,107.3 138.1,113 135.9,113 142.9,107.3 			"/>
		</g>
		<g>
			<polygon fill="#6666CC" points="151.7,89.6 151.9,90.8 152,92 149.4,92 146.8,92 147.5,99.5 148.3,107.3 145.6,107.3 
				142.9,107.3 142.2,99.5 141.6,92 138.9,92 136.3,92 136.2,90.8 136.1,89.6 143.9,89.6 			"/>
		</g>
	</g>
	<g enable-background="new    ">
		<g>
			<polygon fill="#864F06" points="121.7,98 121.8,99 121.8,100 122.9,100 124,100 124.1,101.1 124.1,102.1 121.9,102.1 
				119.7,102.1 119.7,101.1 119.6,100 117.4,100 115.2,100 115.3,102.1 115.4,104.3 119.8,104.3 124.2,104.3 124.3,105.3 
				124.3,106.4 125.4,106.4 126.5,106.4 126.7,108.6 126.8,110.8 125.6,110.8 124.5,110.8 124.6,111.9 124.6,113 119,113 113.4,113 
				113.3,111.9 113.3,110.8 112.2,110.8 111.1,110.8 111.1,109.7 111,108.6 113.3,108.6 115.5,108.6 115.5,109.7 115.6,110.8 
				118.9,110.8 122.3,110.8 122.2,108.6 122.1,106.4 117.7,106.4 113.2,106.4 113.2,105.3 113.2,104.3 112.1,104.3 110.9,104.3 
				110.9,102.1 110.9,100 112,100 113.1,100 113,99 113,98 117.4,98 			"/>
		</g>
		<g>
			<polygon fill="#F28E0A" points="120.5,89.6 125.7,89.6 121.7,98 117.4,98 			"/>
		</g>
		<g>
			<polygon fill="#F28E0A" points="115.3,89.6 120.5,89.6 117.4,98 113,98 			"/>
		</g>
		<g>
			<polygon fill="#F28E0A" points="127.2,92 128.5,92 124,100 122.9,100 			"/>
		</g>
		<g>
			<polygon fill="#F28E0A" points="123.2,92 119.6,100 117.4,100 120.6,92 			"/>
		</g>
		<g>
			<polygon fill="#F28E0A" points="120.6,92 117.4,100 115.2,100 118,92 			"/>
		</g>
		<g>
			<polygon fill="#F28E0A" points="112.8,92 114.1,92 112,100 110.9,100 			"/>
		</g>
		<g>
			<polygon fill="#F28E0A" points="114.1,92 115.4,92 113.1,100 112,100 			"/>
		</g>
		<g>
			<polygon fill="#F28E0A" points="125.8,92 127.2,92 122.9,100 121.8,100 			"/>
		</g>
		<g>
			<polygon fill="#F28E0A" points="128.6,94.5 124.1,102.1 121.9,102.1 126,94.5 			"/>
		</g>
		<g>
			<polygon fill="#F28E0A" points="126,94.5 121.9,102.1 119.7,102.1 123.3,94.5 			"/>
		</g>
		<g>
			<polygon fill="#F28E0A" points="123.5,97 128.8,97 124.2,104.3 119.8,104.3 			"/>
		</g>
		<g>
			<polygon fill="#F28E0A" points="115.6,97 113.2,104.3 112.1,104.3 114.2,97 			"/>
		</g>
		<g>
			<polygon fill="#F28E0A" points="114.2,97 112.1,104.3 110.9,104.3 112.9,97 			"/>
		</g>
		<g>
			<polygon fill="#F28E0A" points="118.2,97 123.5,97 119.8,104.3 115.4,104.3 			"/>
		</g>
		<g>
			<polygon fill="#F28E0A" points="126.3,99.5 122.1,106.4 117.7,106.4 120.9,99.5 			"/>
		</g>
		<g>
			<polygon fill="#F28E0A" points="120.9,99.5 117.7,106.4 113.2,106.4 115.6,99.5 			"/>
		</g>
		<g>
			<polygon fill="#F28E0A" points="130.2,99.5 131.6,99.5 126.5,106.4 125.4,106.4 			"/>
		</g>
		<g>
			<polygon fill="#F28E0A" points="128.9,99.5 130.2,99.5 125.4,106.4 124.3,106.4 			"/>
		</g>
		<g>
			<polygon fill="#F28E0A" points="115.7,102.1 118.4,102.1 115.5,108.6 113.3,108.6 			"/>
		</g>
		<g>
			<polygon fill="#F28E0A" points="113,102.1 115.7,102.1 113.3,108.6 111,108.6 			"/>
		</g>
		<g>
			<polygon fill="#F28E0A" points="122.5,104.7 126.5,104.7 122.3,110.8 118.9,110.8 			"/>
		</g>
		<g>
			<polygon fill="#F28E0A" points="130.6,104.7 125.6,110.8 124.5,110.8 129.2,104.7 			"/>
		</g>
		<g>
			<polygon fill="#F28E0A" points="114.4,104.7 112.2,110.8 111.1,110.8 113.1,104.7 			"/>
		</g>
		<g>
			<polygon fill="#F28E0A" points="118.5,104.7 122.5,104.7 118.9,110.8 115.6,110.8 			"/>
		</g>
		<g>
			<polygon fill="#F28E0A" points="131.9,104.7 126.8,110.8 125.6,110.8 130.6,104.7 			"/>
		</g>
		<g>
			<polygon fill="#F28E0A" points="115.8,104.7 113.3,110.8 112.2,110.8 114.4,104.7 			"/>
		</g>
		<g>
			<polygon fill="#F28E0A" points="129.4,107.3 124.6,113 119,113 122.6,107.3 			"/>
		</g>
		<g>
			<polygon fill="#6666CC" points="125.7,89.6 125.8,90.8 125.8,92 127.2,92 128.5,92 128.5,93.3 128.6,94.5 126,94.5 123.3,94.5 
				123.3,93.3 123.2,92 120.6,92 118,92 118.1,94.5 118.2,97 123.5,97 128.8,97 128.8,98.3 128.9,99.5 130.2,99.5 131.6,99.5 
				131.7,102.1 131.9,104.7 130.6,104.7 129.2,104.7 129.3,106 129.4,107.3 122.6,107.3 115.9,107.3 115.8,106 115.8,104.7 
				114.4,104.7 113.1,104.7 113.1,103.4 113,102.1 115.7,102.1 118.4,102.1 118.4,103.4 118.5,104.7 122.5,104.7 126.5,104.7 
				126.4,102.1 126.3,99.5 120.9,99.5 115.6,99.5 115.6,98.3 115.6,97 114.2,97 112.9,97 112.8,94.5 112.8,92 114.1,92 115.4,92 
				115.4,90.8 115.3,89.6 120.5,89.6 			"/>
		</g>
		<g>
			<polygon fill="#F28E0A" points="122.6,107.3 119,113 113.4,113 115.9,107.3 			"/>
		</g>
	</g>
	<g enable-background="new    ">
		<g>
			<path fill="#864F06" d="M107.6,102.1h1.1l0.1,5.4l0.1,5.5h-2.2h-2.2l0-2.2l0-2.2H101h-3.3l0,2.2l0,2.2h-2.2h-2.2l0.1-5.5l0.1-5.4
				h1.1h1.1l0-1.1l0-1.1h1.1h1.1V99v-1h3.3h3.3v1v1.1h1.1h1.1l0,1.1l0,1.1H107.6z M104.3,104.3l0-2.1h-1.1h-1.1v-1.1V100H101h-1.1
				v1.1v1.1h-1.1h-1.1l0,2.1l0,2.1h3.3h3.3L104.3,104.3"/>
		</g>
		<g>
			<polygon fill="#F28E0A" points="97.1,89.6 101,89.6 101,98 97.7,98 			"/>
		</g>
		<g>
			<polygon fill="#F28E0A" points="101,89.6 104.9,89.6 104.3,98 101,98 			"/>
		</g>
		<g>
			<polygon fill="#F28E0A" points="94.5,92 95.8,92 96.6,100 95.5,100 			"/>
		</g>
		<g>
			<polygon fill="#F28E0A" points="95.8,92 97.1,92 97.7,100 96.6,100 			"/>
		</g>
		<g>
			<polygon fill="#F28E0A" points="101,92 101,100 99.9,100 99.7,92 			"/>
		</g>
		<g>
			<polygon fill="#F28E0A" points="102.3,92 102.1,100 101,100 101,92 			"/>
		</g>
		<g>
			<polygon fill="#F28E0A" points="104.9,92 106.2,92 105.4,100 104.3,100 			"/>
		</g>
		<g>
			<polygon fill="#F28E0A" points="106.2,92 107.5,92 106.5,100 105.4,100 			"/>
		</g>
		<g>
			<polygon fill="#F28E0A" points="103.6,94.5 103.2,102.1 102.1,102.1 102.3,94.5 			"/>
		</g>
		<g>
			<polygon fill="#F28E0A" points="105,94.5 104.3,102.1 103.2,102.1 103.6,94.5 			"/>
		</g>
		<g>
			<polygon fill="#F28E0A" points="93.1,94.5 94.4,94.5 95.5,102.1 94.4,102.1 			"/>
		</g>
		<g>
			<polygon fill="#F28E0A" points="108.9,94.5 110.2,94.5 108.7,102.1 107.6,102.1 			"/>
		</g>
		<g>
			<polygon fill="#F28E0A" points="98.4,94.5 98.8,102.1 97.7,102.1 97.1,94.5 			"/>
		</g>
		<g>
			<polygon fill="#F28E0A" points="99.7,94.5 99.9,102.1 98.8,102.1 98.4,94.5 			"/>
		</g>
		<g>
			<polygon fill="#F28E0A" points="91.8,94.5 93.1,94.5 94.4,102.1 93.3,102.1 			"/>
		</g>
		<g>
			<polygon fill="#F28E0A" points="107.6,94.5 108.9,94.5 107.6,102.1 106.5,102.1 			"/>
		</g>
		<g>
			<polygon fill="#F28E0A" points="101,99.5 105,99.5 104.3,106.4 101,106.4 			"/>
		</g>
		<g>
			<polygon fill="#F28E0A" points="97,99.5 101,99.5 101,106.4 97.7,106.4 			"/>
		</g>
		<g>
			<polygon fill="#F28E0A" points="101,102.1 101,108.6 97.7,108.6 97,102.1 			"/>
		</g>
		<g>
			<polygon fill="#F28E0A" points="105,102.1 104.4,108.6 101,108.6 101,102.1 			"/>
		</g>
		<g>
			<polygon fill="#F28E0A" points="97,107.3 97.6,113 95.4,113 94.3,107.3 			"/>
		</g>
		<g>
			<path fill="#6666CC" d="M108.9,94.5h1.3l0.1,6.3l0.1,6.5h-2.7h-2.7l0-2.6l0-2.6h-4h-4l0,2.6l0,2.6h-2.7h-2.7l0.1-6.5l0.1-6.3h1.3
				h1.3l0-1.2l0-1.2h1.3h1.3l0-1.2l0-1.2h3.9h3.9l0,1.2l0,1.2h1.3h1.3l0,1.2l0,1.2H108.9z M105,97l0-2.5h-1.3h-1.3v-1.2V92H101h-1.3
				v1.2v1.2h-1.3h-1.3l0,2.5l0,2.5h4h4L105,97"/>
		</g>
		<g>
			<polygon fill="#F28E0A" points="110.5,107.3 108.9,113 106.6,113 107.8,107.3 			"/>
		</g>
		<g>
			<polygon fill="#F28E0A" points="107.8,107.3 106.6,113 104.4,113 105.1,107.3 			"/>
		</g>
		<g>
			<polygon fill="#F28E0A" points="94.3,107.3 95.4,113 93.1,113 91.6,107.3 			"/>
		</g>
	</g>
</g>
</svg>
