<?xml version="1.0" encoding="utf-8"?>
<!-- Generator: Adobe Illustrator 17.1.0, SVG Export Plug-In . SVG Version: 6.00 Build 0)  -->
<!DOCTYPE svg PUBLIC "-//W3C//DTD SVG 1.1//EN" "http://www.w3.org/Graphics/SVG/1.1/DTD/svg11.dtd">
<svg version="1.1" id="Layer_1" xmlns="http://www.w3.org/2000/svg" xmlns:xlink="http://www.w3.org/1999/xlink" x="0px" y="0px"
	 viewBox="0 0 960 560" enable-background="new 0 0 960 560" xml:space="preserve">
<g>
	<polygon fill="#B3B3B3" points="412.3,518.6 342.4,457.3 342.4,87.2 412.3,28.4 548.9,28.4 616.5,87.3 616.5,457.3 548.9,518.6 	
		"/>
	<path d="M547.8,31.9l65.1,56.7v366.5l-65.1,61.3l-134.4-0.1L344.7,456V88.6l68.6-56.7h134.6 M549.9,26h-2.2H413.4h-2.1l-1.7,1.1
		l-68.4,57.2l-2.4,1.7v2.7V456v2.7l2.4,1.8l68.3,60l1.8,1.8h2.2h134.3h2.2l1.7-1.8l65.5-59.8l1.7-1.9V456V88.6v-2.7l-1.8-1.8
		l-65.6-56.9L549.9,26L549.9,26z"/>
</g>
<polyline fill="#888888" points="345.6,87.2 413.2,31.5 547.6,31.5 612.6,88.2 "/>
<polygon fill="#E6E6E6" points="344.7,89.8 413.2,148.2 413.2,516.3 344.7,456 "/>
<polygon fill="#999999" points="547.9,148.9 612.9,90.9 612.9,454.9 547.9,516.2 "/>
<polygon opacity="0.25" fill="#FFFFFF" enable-background="new    " points="344.8,317.3 413.1,246.4 548.5,246.4 613.1,187.3 
	613.1,132 548.5,191.1 413.1,191.1 344.8,262 "/>
<polyline fill="#FFFFFF" stroke="#000000" stroke-width="5" stroke-miterlimit="10" points="613.7,88 546.6,147.1 414,146.1 
	345.1,87.4 "/>
<polygon points="474.8,90.6 448.4,69.1 373.4,95.7 399.8,117.2 "/>
</svg>
