<?xml version="1.0" encoding="utf-8"?>
<!-- Generator: Adobe Illustrator 18.0.0, SVG Export Plug-In . SVG Version: 6.00 Build 0)  -->
<!DOCTYPE svg PUBLIC "-//W3C//DTD SVG 1.1//EN" "http://www.w3.org/Graphics/SVG/1.1/DTD/svg11.dtd">
<svg version="1.1" id="Layer_1" xmlns="http://www.w3.org/2000/svg" xmlns:xlink="http://www.w3.org/1999/xlink" x="0px" y="0px"
	 viewBox="0 0 960 560" enable-background="new 0 0 960 560" xml:space="preserve">
<polygon fill="#E6E6E6" points="344.7,89.8 413.2,148.2 413.2,516.3 344.7,456 "/>
<polygon fill="#999999" points="547.9,148.9 612.9,90.9 612.9,454.9 547.9,516.2 "/>
<rect x="411.3" y="148.2" width="136.6" height="368"/>
<polygon opacity="0.25" fill="#FFFFFF" enable-background="new    " points="344.8,193.1 413.1,179.3 548.5,179.3 613.1,167.9 
	613.1,157.1 548.5,168.6 413.1,168.6 344.8,182.4 "/>
<rect x="378.9" y="57.1" transform="matrix(0.776 -0.6307 0.6307 0.776 39.3807 284.1144)" width="81.6" height="59.1"/>
<rect x="451.3" y="60.7" fill="#C6C6C6" width="37.3" height="41.3"/>
<path fill="#939393" d="M547,31.3H412.6l-68.1,58.9l68.9,58.7H548l65.1-58.1L547,31.3z M403.8,113.2l-26.4-21.5l75-27.6l26.4,22.5
	L403.8,113.2z"/>
<polygon opacity="0.25" fill="#FFFFFF" enable-background="new    " points="344.6,443.8 413,412.7 548.3,412.7 612.9,386.7 
	612.9,362.5 548.3,388.4 413,388.4 344.6,419.5 "/>
</svg>
