<?xml version="1.0" encoding="utf-8"?>
<!-- Generator: Adobe Illustrator 18.0.0, SVG Export Plug-In . SVG Version: 6.00 Build 0)  -->
<!DOCTYPE svg PUBLIC "-//W3C//DTD SVG 1.1//EN" "http://www.w3.org/Graphics/SVG/1.1/DTD/svg11.dtd">
<svg version="1.1" id="Layer_1" xmlns="http://www.w3.org/2000/svg" xmlns:xlink="http://www.w3.org/1999/xlink" x="0px" y="0px"
	 viewBox="0 0 200 200" enable-background="new 0 0 200 200" xml:space="preserve">
<g>
	<polygon fill="#FF0000" points="84,99 84,93 40,93 40,19 94.3,19 88,25 164.4,25 145.9,56.7 164.7,99 	"/>
	<path d="M88.5,21l-6.1,6h11h66.8l-16.4,28l-0.8,1.3l0.6,1.6L161,97H87v-2.5V91h-5.2H43V21h45 M99.8,17H38v78h44v6h86.4l-19.7-44.2
		L168.4,23h-75L99.8,17L99.8,17z"/>
</g>
<line fill="none" stroke="#000000" stroke-width="11" stroke-miterlimit="10" x1="26.5" y1="17" x2="26.5" y2="183"/>
<line fill="none" stroke="#000000" stroke-width="4" stroke-miterlimit="10" x1="84" y1="27" x2="84" y2="101"/>
</svg>
