<?xml version="1.0" encoding="utf-8"?>
<!-- Generator: Adobe Illustrator 17.1.0, SVG Export Plug-In . SVG Version: 6.00 Build 0)  -->
<!DOCTYPE svg PUBLIC "-//W3C//DTD SVG 1.1//EN" "http://www.w3.org/Graphics/SVG/1.1/DTD/svg11.dtd">
<svg version="1.1" id="Layer_1" xmlns="http://www.w3.org/2000/svg" xmlns:xlink="http://www.w3.org/1999/xlink" x="0px" y="0px"
	 viewBox="0 0 1024 768" enable-background="new 0 0 1024 768" xml:space="preserve">
<g>
	<g enable-background="new    ">
		<g>
			<polygon fill="#864F06" points="177.1,334.2 175.6,345.1 158.6,345.1 141.6,345.1 143.3,334.2 145,323.4 161.8,323.4 
				178.6,323.4 			"/>
		</g>
		<g>
			<polygon fill="#864F06" points="172.5,367.1 170.9,378.3 153.7,378.3 136.5,378.3 138.2,367.1 139.9,356.1 157,356.1 174,356.1 
							"/>
		</g>
		<g>
			<polygon fill="#864F06" points="195.4,323.4 201,323.4 199.6,334.2 198.2,345.1 192.5,345.1 186.9,345.1 186.1,350.6 
				185.4,356.1 191.1,356.1 196.7,356.1 195.3,367.1 193.8,378.3 188.1,378.3 182.4,378.3 181.6,383.9 180.8,389.6 146.3,389.6 
				111.7,389.6 118.1,350.6 124.3,312.8 157.8,312.8 191.3,312.8 190.6,318.1 189.8,323.4 			"/>
		</g>
		<g>
			<polygon fill="#F28E0A" points="87.7,269.9 127.7,269.9 191.3,312.8 157.8,312.8 			"/>
		</g>
		<g>
			<polygon fill="#F28E0A" points="47.8,269.9 87.7,269.9 157.8,312.8 124.3,312.8 			"/>
		</g>
		<g>
			<polygon fill="#F28E0A" points="92.1,282.4 112.2,282.4 178.6,323.4 161.8,323.4 			"/>
		</g>
		<g>
			<polygon fill="#F28E0A" points="132.3,282.4 139,282.4 201,323.4 195.4,323.4 			"/>
		</g>
		<g>
			<polygon fill="#F28E0A" points="125.6,282.4 132.3,282.4 195.4,323.4 189.8,323.4 			"/>
		</g>
		<g>
			<polygon fill="#F28E0A" points="72.1,282.4 92.1,282.4 161.8,323.4 145,323.4 			"/>
		</g>
		<g>
			<polygon fill="#F28E0A" points="128.2,307.9 192.5,345.1 186.9,345.1 121.4,307.9 			"/>
		</g>
		<g>
			<polygon fill="#F28E0A" points="87.6,307.9 158.6,345.1 141.6,345.1 67.3,307.9 			"/>
		</g>
		<g>
			<polygon fill="#F28E0A" points="134.9,307.9 198.2,345.1 192.5,345.1 128.2,307.9 			"/>
		</g>
		<g>
			<polygon fill="#F28E0A" points="107.9,307.9 175.6,345.1 158.6,345.1 87.6,307.9 			"/>
		</g>
		<g>
			<polygon fill="#F28E0A" points="119.3,320.8 126.1,320.8 191.1,356.1 185.4,356.1 			"/>
		</g>
		<g>
			<polygon fill="#F28E0A" points="85.2,320.8 105.6,320.8 174,356.1 157,356.1 			"/>
		</g>
		<g>
			<polygon fill="#F28E0A" points="126.1,320.8 132.9,320.8 196.7,356.1 191.1,356.1 			"/>
		</g>
		<g>
			<polygon fill="#F28E0A" points="64.8,320.8 85.2,320.8 157,356.1 139.9,356.1 			"/>
		</g>
		<g>
			<polygon fill="#F28E0A" points="121.8,347.1 188.1,378.3 182.4,378.3 114.9,347.1 			"/>
		</g>
		<g>
			<polygon fill="#F28E0A" points="101.2,347.1 170.9,378.3 153.7,378.3 80.5,347.1 			"/>
		</g>
		<g>
			<polygon fill="#F28E0A" points="80.5,347.1 153.7,378.3 136.5,378.3 59.9,347.1 			"/>
		</g>
		<g>
			<polygon fill="#F28E0A" points="128.7,347.1 193.8,378.3 188.1,378.3 121.8,347.1 			"/>
		</g>
		<g>
			<polygon fill="#F28E0A" points="71.2,360.5 146.3,389.6 111.7,389.6 29.7,360.5 			"/>
		</g>
		<g>
			<polygon fill="#F28E0A" points="112.7,360.5 180.8,389.6 146.3,389.6 71.2,360.5 			"/>
		</g>
		<path d="M133.1,281h-6.7l1-6l1-6h-40h-40l-8.8,44.7L30.5,360H72h41.5l1.1-6.5l1.1-6.5h6.9h6.9l2.1-13.1l2.1-12.9h-6.8H120l1.1-7
			l1.1-7h6.8h6.8l2-13.1l2-12.9H133.1z M103.4,333.9l-2.3,13.1H80.5H59.9l2.5-13.1l2.5-12.9h20.4h20.4L103.4,333.9z M110,293.9
			l-2.2,13.1H87.6H67.3l2.4-13.1l2.4-12.9h20.1h20.1L110,293.9z"/>
	</g>
	<g enable-background="new    ">
		<g>
			<polygon fill="#864F06" points="291.7,312.8 291.2,318.1 290.7,323.4 262.7,323.4 234.7,323.4 233.4,334.2 232.1,345.1 
				254.7,345.1 277.4,345.1 276.8,350.6 276.3,356.1 253.6,356.1 230.8,356.1 229.5,367.1 228.2,378.3 256.9,378.3 285.5,378.3 
				285,383.9 284.5,389.6 244.2,389.6 203.9,389.6 208.8,350.6 213.6,312.8 252.7,312.8 			"/>
		</g>
		<g>
			<polygon fill="#F28E0A" points="200.9,269.9 247.5,269.9 291.7,312.8 252.7,312.8 			"/>
		</g>
		<g>
			<polygon fill="#F28E0A" points="154.3,269.9 200.9,269.9 252.7,312.8 213.6,312.8 			"/>
		</g>
		<g>
			<polygon fill="#F28E0A" points="212.6,282.4 262.7,323.4 234.7,323.4 179.2,282.4 			"/>
		</g>
		<g>
			<polygon fill="#F28E0A" points="246.1,282.4 290.7,323.4 262.7,323.4 212.6,282.4 			"/>
		</g>
		<g>
			<polygon fill="#F28E0A" points="202.6,307.9 229.6,307.9 277.4,345.1 254.7,345.1 			"/>
		</g>
		<g>
			<polygon fill="#F28E0A" points="175.5,307.9 202.6,307.9 254.7,345.1 232.1,345.1 			"/>
		</g>
		<g>
			<polygon fill="#F28E0A" points="228.1,320.8 276.3,356.1 253.6,356.1 200.9,320.8 			"/>
		</g>
		<g>
			<polygon fill="#F28E0A" points="200.9,320.8 253.6,356.1 230.8,356.1 173.7,320.8 			"/>
		</g>
		<g>
			<polygon fill="#F28E0A" points="169.9,347.1 204.3,347.1 256.9,378.3 228.2,378.3 			"/>
		</g>
		<g>
			<polygon fill="#F28E0A" points="204.3,347.1 238.7,347.1 285.5,378.3 256.9,378.3 			"/>
		</g>
		<g>
			<polygon fill="#F28E0A" points="237.1,360.5 284.5,389.6 244.2,389.6 188.7,360.5 			"/>
		</g>
		<g>
			<polygon fill="#F28E0A" points="188.7,360.5 244.2,389.6 203.9,389.6 140.3,360.5 			"/>
		</g>
		<g>
			<polygon points="247.5,269.9 246.8,276.1 246.1,282.4 212.6,282.4 179.2,282.4 177.3,295.1 175.5,307.9 202.6,307.9 229.6,307.9 
				228.9,314.3 228.1,320.8 200.9,320.8 173.7,320.8 171.8,333.9 169.9,347.1 204.3,347.1 238.7,347.1 237.9,353.8 237.1,360.5 
				188.7,360.5 140.3,360.5 147.5,314.3 154.3,269.9 200.9,269.9 			"/>
		</g>
	</g>
	<g enable-background="new    ">
		<g>
			<polygon fill="#864F06" points="381,312.8 379.8,334.2 378.5,356.1 372.8,356.1 367.2,356.1 366.8,361.6 366.5,367.1 
				360.8,367.1 355.1,367.1 354.7,372.7 354.3,378.3 348.6,378.3 342.9,378.3 342.4,383.9 342,389.6 336.3,389.6 330.5,389.6 
				331,383.9 331.4,378.3 325.7,378.3 319.9,378.3 320.4,372.7 320.8,367.1 315.1,367.1 309.4,367.1 309.9,361.6 310.4,356.1 
				304.7,356.1 299,356.1 301,334.2 302.9,312.8 314.1,312.8 325.2,312.8 323.9,328.8 322.6,345.1 328.3,345.1 333.9,345.1 
				333.5,350.6 333.1,356.1 338.8,356.1 344.4,356.1 344.8,350.6 345.2,345.1 350.9,345.1 356.5,345.1 357.6,328.8 358.7,312.8 
				369.9,312.8 			"/>
		</g>
		<g>
			<polygon fill="#F28E0A" points="340.8,269.9 354.1,269.9 381,312.8 369.9,312.8 			"/>
		</g>
		<g>
			<polygon fill="#F28E0A" points="260.9,269.9 274.2,269.9 314.1,312.8 302.9,312.8 			"/>
		</g>
		<g>
			<polygon fill="#F28E0A" points="274.2,269.9 287.5,269.9 325.2,312.8 314.1,312.8 			"/>
		</g>
		<g>
			<polygon fill="#F28E0A" points="327.4,269.9 340.8,269.9 369.9,312.8 358.7,312.8 			"/>
		</g>
		<g>
			<polygon fill="#F28E0A" points="290.5,307.9 297.3,307.9 333.9,345.1 328.3,345.1 			"/>
		</g>
		<g>
			<polygon fill="#F28E0A" points="310.8,307.9 317.6,307.9 350.9,345.1 345.2,345.1 			"/>
		</g>
		<g>
			<polygon fill="#F28E0A" points="317.6,307.9 324.3,307.9 356.5,345.1 350.9,345.1 			"/>
		</g>
		<g>
			<polygon fill="#F28E0A" points="283.8,307.9 290.5,307.9 328.3,345.1 322.6,345.1 			"/>
		</g>
		<g>
			<polygon fill="#F28E0A" points="350.5,320.8 378.5,356.1 372.8,356.1 343.7,320.8 			"/>
		</g>
		<g>
			<polygon fill="#F28E0A" points="262.1,320.8 304.7,356.1 299,356.1 255.3,320.8 			"/>
		</g>
		<g>
			<polygon fill="#F28E0A" points="268.9,320.8 310.4,356.1 304.7,356.1 262.1,320.8 			"/>
		</g>
		<g>
			<polygon fill="#F28E0A" points="302.9,320.8 309.7,320.8 344.4,356.1 338.8,356.1 			"/>
		</g>
		<g>
			<polygon fill="#F28E0A" points="296.1,320.8 302.9,320.8 338.8,356.1 333.1,356.1 			"/>
		</g>
		<g>
			<polygon fill="#F28E0A" points="343.7,320.8 372.8,356.1 367.2,356.1 336.9,320.8 			"/>
		</g>
		<g>
			<polygon fill="#F28E0A" points="335.9,333.9 366.5,367.1 360.8,367.1 329.1,333.9 			"/>
		</g>
		<g>
			<polygon fill="#F28E0A" points="281.2,333.9 320.8,367.1 315.1,367.1 274.4,333.9 			"/>
		</g>
		<g>
			<polygon fill="#F28E0A" points="274.4,333.9 315.1,367.1 309.4,367.1 267.5,333.9 			"/>
		</g>
		<g>
			<polygon fill="#F28E0A" points="329.1,333.9 360.8,367.1 355.1,367.1 322.2,333.9 			"/>
		</g>
		<g>
			<polygon fill="#F28E0A" points="314.3,347.1 348.6,378.3 342.9,378.3 307.4,347.1 			"/>
		</g>
		<g>
			<polygon fill="#F28E0A" points="321.2,347.1 354.3,378.3 348.6,378.3 314.3,347.1 			"/>
		</g>
		<g>
			<polygon fill="#F28E0A" points="293.7,347.1 331.4,378.3 325.7,378.3 286.8,347.1 			"/>
		</g>
		<g>
			<polygon fill="#F28E0A" points="286.8,347.1 325.7,378.3 319.9,378.3 279.9,347.1 			"/>
		</g>
		<g>
			<polygon fill="#F28E0A" points="306.2,360.5 342,389.6 336.3,389.6 299.3,360.5 			"/>
		</g>
		<g>
			<polygon fill="#F28E0A" points="299.3,360.5 336.3,389.6 330.5,389.6 292.4,360.5 			"/>
		</g>
		<g>
			<polygon points="354.1,269.9 352.3,295.1 350.5,320.8 343.7,320.8 336.9,320.8 336.4,327.3 335.9,333.9 329.1,333.9 322.2,333.9 
				321.7,340.5 321.2,347.1 314.3,347.1 307.4,347.1 306.8,353.8 306.2,360.5 299.3,360.5 292.4,360.5 293,353.8 293.7,347.1 
				286.8,347.1 279.9,347.1 280.6,340.5 281.2,333.9 274.4,333.9 267.5,333.9 268.2,327.3 268.9,320.8 262.1,320.8 255.3,320.8 
				258.1,295.1 260.9,269.9 274.2,269.9 287.5,269.9 285.6,288.7 283.8,307.9 290.5,307.9 297.3,307.9 296.7,314.3 296.1,320.8 
				302.9,320.8 309.7,320.8 310.3,314.3 310.8,307.9 317.6,307.9 324.3,307.9 325.9,288.7 327.4,269.9 340.8,269.9 			"/>
		</g>
	</g>
	<g enable-background="new    ">
		<g>
			<polygon fill="#864F06" points="470.3,312.8 469.5,350.6 468.7,389.6 457.2,389.6 445.7,389.6 446.2,372.7 446.7,356.1 
				441,356.1 435.3,356.1 435.1,361.6 434.9,367.1 429.2,367.1 423.5,367.1 423.8,361.6 424,356.1 418.3,356.1 412.6,356.1 
				411.9,372.7 411.1,389.6 399.6,389.6 388.1,389.6 390.2,350.6 392.2,312.8 403.3,312.8 414.5,312.8 414.3,318.1 414,323.4 
				419.6,323.4 425.3,323.4 425,328.8 424.8,334.2 430.5,334.2 436.1,334.2 436.3,328.8 436.5,323.4 442.1,323.4 447.7,323.4 
				447.8,318.1 448,312.8 459.2,312.8 			"/>
		</g>
		<g>
			<polygon fill="#F28E0A" points="447.3,269.9 460.6,269.9 470.3,312.8 459.2,312.8 			"/>
		</g>
		<g>
			<polygon fill="#F28E0A" points="367.4,269.9 380.7,269.9 403.3,312.8 392.2,312.8 			"/>
		</g>
		<g>
			<polygon fill="#F28E0A" points="380.7,269.9 394,269.9 414.5,312.8 403.3,312.8 			"/>
		</g>
		<g>
			<polygon fill="#F28E0A" points="434,269.9 447.3,269.9 459.2,312.8 448,312.8 			"/>
		</g>
		<g>
			<polygon fill="#F28E0A" points="400.1,282.4 406.7,282.4 425.3,323.4 419.6,323.4 			"/>
		</g>
		<g>
			<polygon fill="#F28E0A" points="426.8,282.4 433.5,282.4 447.7,323.4 442.1,323.4 			"/>
		</g>
		<g>
			<polygon fill="#F28E0A" points="393.4,282.4 400.1,282.4 419.6,323.4 414,323.4 			"/>
		</g>
		<g>
			<polygon fill="#F28E0A" points="420.1,282.4 426.8,282.4 442.1,323.4 436.5,323.4 			"/>
		</g>
		<g>
			<polygon fill="#F28E0A" points="412.9,295.1 419.6,295.1 436.1,334.2 430.5,334.2 			"/>
		</g>
		<g>
			<polygon fill="#F28E0A" points="406.1,295.1 412.9,295.1 430.5,334.2 424.8,334.2 			"/>
		</g>
		<g>
			<polygon fill="#F28E0A" points="425.3,320.8 441,356.1 435.3,356.1 418.5,320.8 			"/>
		</g>
		<g>
			<polygon fill="#F28E0A" points="404.9,320.8 424,356.1 418.3,356.1 398.1,320.8 			"/>
		</g>
		<g>
			<polygon fill="#F28E0A" points="398.1,320.8 418.3,356.1 412.6,356.1 391.3,320.8 			"/>
		</g>
		<g>
			<polygon fill="#F28E0A" points="432.1,320.8 446.7,356.1 441,356.1 425.3,320.8 			"/>
		</g>
		<g>
			<polygon fill="#F28E0A" points="418,333.9 434.9,367.1 429.2,367.1 411.1,333.9 			"/>
		</g>
		<g>
			<polygon fill="#F28E0A" points="411.1,333.9 429.2,367.1 423.5,367.1 404.3,333.9 			"/>
		</g>
		<g>
			<polygon points="460.6,269.9 459.5,314.3 458.3,360.5 444.5,360.5 430.7,360.5 431.4,340.5 432.1,320.8 425.3,320.8 418.5,320.8 
				418.2,327.3 418,333.9 411.1,333.9 404.3,333.9 404.6,327.3 404.9,320.8 398.1,320.8 391.3,320.8 390.3,340.5 389.2,360.5 
				375.4,360.5 361.5,360.5 364.5,314.3 367.4,269.9 380.7,269.9 394,269.9 393.7,276.1 393.4,282.4 400.1,282.4 406.7,282.4 
				406.4,288.7 406.1,295.1 412.9,295.1 419.6,295.1 419.9,288.7 420.1,282.4 426.8,282.4 433.5,282.4 433.8,276.1 434,269.9 
				447.3,269.9 			"/>
		</g>
		<g>
			<polygon fill="#F28E0A" points="375.4,360.5 399.6,389.6 388.1,389.6 361.5,360.5 			"/>
		</g>
		<g>
			<polygon fill="#F28E0A" points="458.3,360.5 468.7,389.6 457.2,389.6 444.5,360.5 			"/>
		</g>
		<g>
			<polygon fill="#F28E0A" points="444.5,360.5 457.2,389.6 445.7,389.6 430.7,360.5 			"/>
		</g>
		<g>
			<polygon fill="#F28E0A" points="389.2,360.5 411.1,389.6 399.6,389.6 375.4,360.5 			"/>
		</g>
	</g>
	<g enable-background="new    ">
		<g>
			<path fill="#864F06" d="M912.9,323.4h5.6l2.7,16.2l2.7,16.4h-11.4h-11.4l0.9,5.5l0.9,5.5h5.7h5.7l0.9,5.6l0.9,5.6h5.7h5.7
				l0.9,5.6l0.9,5.6h-17.3h-17.3l-0.8-5.6l-0.8-5.6h-5.7h-5.7l-0.8-5.6l-0.8-5.6h-5.7h-5.7l1.6,11.2l1.6,11.3h-11.5h-11.5l-5.1-39
				l-5-37.8h33.5h33.5l0.8,5.3l0.9,5.4H912.9z M897.8,334.2l-1.7-10.8h-16.8h-16.8l2.3,16.2l2.3,16.4h11.4h11.4l-0.8-5.5l-0.8-5.5
				h5.7h5.7L897.8,334.2"/>
		</g>
		<g>
			<polygon fill="#F28E0A" points="900.1,269.9 940,269.9 872.1,312.8 838.6,312.8 			"/>
		</g>
		<g>
			<polygon fill="#F28E0A" points="940,269.9 980,269.9 905.6,312.8 872.1,312.8 			"/>
		</g>
		<g>
			<polygon fill="#F28E0A" points="982.4,282.4 989.1,282.4 912.9,323.4 907.3,323.4 			"/>
		</g>
		<g>
			<polygon fill="#F28E0A" points="949,282.4 879.3,323.4 862.5,323.4 928.9,282.4 			"/>
		</g>
		<g>
			<polygon fill="#F28E0A" points="989.1,282.4 995.8,282.4 918.5,323.4 912.9,323.4 			"/>
		</g>
		<g>
			<polygon fill="#F28E0A" points="969,282.4 896.1,323.4 879.3,323.4 949,282.4 			"/>
		</g>
		<g>
			<polygon fill="#F28E0A" points="967,307.9 973.8,307.9 899.4,345.1 893.8,345.1 			"/>
		</g>
		<g>
			<polygon fill="#F28E0A" points="960.3,307.9 967,307.9 893.8,345.1 888.1,345.1 			"/>
		</g>
		<g>
			<polygon fill="#F28E0A" points="949,320.8 962.6,320.8 889.8,356.1 878.4,356.1 			"/>
		</g>
		<g>
			<polygon fill="#F28E0A" points="989.8,320.8 912.5,356.1 901.1,356.1 976.2,320.8 			"/>
		</g>
		<g>
			<polygon fill="#F28E0A" points="935.4,320.8 949,320.8 878.4,356.1 867.1,356.1 			"/>
		</g>
		<g>
			<polygon fill="#F28E0A" points="1003.5,320.8 923.9,356.1 912.5,356.1 989.8,320.8 			"/>
		</g>
		<g>
			<polygon fill="#F28E0A" points="951.3,333.9 880,367.1 874.3,367.1 944.5,333.9 			"/>
		</g>
		<g>
			<polygon fill="#F28E0A" points="985.5,333.9 992.4,333.9 914.3,367.1 908.6,367.1 			"/>
		</g>
		<g>
			<polygon fill="#F28E0A" points="978.7,333.9 985.5,333.9 908.6,367.1 902.9,367.1 			"/>
		</g>
		<g>
			<polygon fill="#F28E0A" points="944.5,333.9 874.3,367.1 868.6,367.1 937.7,333.9 			"/>
		</g>
		<g>
			<polygon fill="#F28E0A" points="1001.8,347.1 1008.7,347.1 927.5,378.3 921.8,378.3 			"/>
		</g>
		<g>
			<polygon fill="#F28E0A" points="967.4,347.1 893.1,378.3 887.4,378.3 960.6,347.1 			"/>
		</g>
		<g>
			<polygon fill="#F28E0A" points="960.6,347.1 887.4,378.3 881.7,378.3 953.7,347.1 			"/>
		</g>
		<g>
			<polygon fill="#F28E0A" points="994.9,347.1 1001.8,347.1 921.8,378.3 916,378.3 			"/>
		</g>
		<g>
			<polygon fill="#F28E0A" points="928.4,360.5 860.3,389.6 848.7,389.6 914.6,360.5 			"/>
		</g>
		<g>
			<polygon fill="#F28E0A" points="942.2,360.5 871.8,389.6 860.3,389.6 928.4,360.5 			"/>
		</g>
		<g>
			<polygon fill="#F28E0A" points="990.6,360.5 912.1,389.6 894.8,389.6 969.9,360.5 			"/>
		</g>
		<g>
			<path d="M989.1,282.4h6.7l3.8,19l3.9,19.4h-13.6h-13.6l1.2,6.5l1.2,6.6h6.8h6.8l1.3,6.6l1.3,6.6h6.9h6.9l1.3,6.7l1.3,6.7h-20.7
				h-20.7l-1.2-6.7l-1.2-6.7h-6.9h-6.9l-1.2-6.6l-1.2-6.6h-6.8h-6.8l2.3,13.2l2.3,13.4h-13.8h-13.8l-7.4-46.1l-7.1-44.4h40h40
				l1.2,6.2l1.2,6.3H989.1z M971.4,295.1l-2.4-12.7H949h-20.1l3.3,19l3.3,19.4H949h13.6l-1.2-6.5l-1.2-6.5h6.8h6.8L971.4,295.1"/>
		</g>
		<g>
			<polygon fill="#F28E0A" points="1011.3,360.5 929.4,389.6 912.1,389.6 990.6,360.5 			"/>
		</g>
	</g>
	<g enable-background="new    ">
		<g>
			<polygon fill="#864F06" points="827.5,312.8 828.2,318.1 828.8,323.4 800.8,323.4 772.8,323.4 773.9,334.2 775,345.1 
				797.7,345.1 820.3,345.1 820.9,350.6 821.6,356.1 798.9,356.1 776.2,356.1 777.3,367.1 778.5,378.3 807.1,378.3 835.8,378.3 
				836.5,383.9 837.2,389.6 796.9,389.6 756.6,389.6 752.9,350.6 749.4,312.8 788.4,312.8 			"/>
		</g>
		<g>
			<polygon fill="#F28E0A" points="840.2,269.9 886.8,269.9 827.5,312.8 788.4,312.8 			"/>
		</g>
		<g>
			<polygon fill="#F28E0A" points="793.6,269.9 840.2,269.9 788.4,312.8 749.4,312.8 			"/>
		</g>
		<g>
			<polygon fill="#F28E0A" points="855.2,282.4 800.8,323.4 772.8,323.4 821.8,282.4 			"/>
		</g>
		<g>
			<polygon fill="#F28E0A" points="888.7,282.4 828.8,323.4 800.8,323.4 855.2,282.4 			"/>
		</g>
		<g>
			<polygon fill="#F28E0A" points="852,307.9 879.1,307.9 820.3,345.1 797.7,345.1 			"/>
		</g>
		<g>
			<polygon fill="#F28E0A" points="825,307.9 852,307.9 797.7,345.1 775,345.1 			"/>
		</g>
		<g>
			<polygon fill="#F28E0A" points="881,320.8 821.6,356.1 798.9,356.1 853.8,320.8 			"/>
		</g>
		<g>
			<polygon fill="#F28E0A" points="853.8,320.8 798.9,356.1 776.2,356.1 826.6,320.8 			"/>
		</g>
		<g>
			<polygon fill="#F28E0A" points="829.9,347.1 864.3,347.1 807.1,378.3 778.5,378.3 			"/>
		</g>
		<g>
			<polygon fill="#F28E0A" points="864.3,347.1 898.7,347.1 835.8,378.3 807.1,378.3 			"/>
		</g>
		<g>
			<polygon fill="#F28E0A" points="900.7,360.5 837.2,389.6 796.9,389.6 852.4,360.5 			"/>
		</g>
		<g>
			<polygon fill="#F28E0A" points="852.4,360.5 796.9,389.6 756.6,389.6 804,360.5 			"/>
		</g>
		<g>
			<polygon points="886.8,269.9 887.7,276.1 888.7,282.4 855.2,282.4 821.8,282.4 823.4,295.1 825,307.9 852,307.9 879.1,307.9 
				880.1,314.3 881,320.8 853.8,320.8 826.6,320.8 828.3,333.9 829.9,347.1 864.3,347.1 898.7,347.1 899.7,353.8 900.7,360.5 
				852.4,360.5 804,360.5 798.7,314.3 793.6,269.9 840.2,269.9 			"/>
		</g>
	</g>
	<g enable-background="new    ">
		<g>
			<polygon fill="#864F06" points="738.2,312.8 738.7,318.1 739.2,323.4 727.9,323.4 716.7,323.4 719.4,356.1 722.1,389.6 
				710.6,389.6 699,389.6 696.6,356.1 694.3,323.4 683.1,323.4 671.9,323.4 671.6,318.1 671.2,312.8 704.7,312.8 			"/>
		</g>
		<g>
			<polygon fill="#F28E0A" points="740.3,269.9 780.2,269.9 738.2,312.8 704.7,312.8 			"/>
		</g>
		<g>
			<polygon fill="#F28E0A" points="700.3,269.9 740.3,269.9 704.7,312.8 671.2,312.8 			"/>
		</g>
		<g>
			<polygon fill="#F28E0A" points="728.1,282.4 694.3,323.4 683.1,323.4 714.7,282.4 			"/>
		</g>
		<g>
			<polygon fill="#F28E0A" points="768.2,282.4 727.9,323.4 716.7,323.4 754.8,282.4 			"/>
		</g>
		<g>
			<polygon fill="#F28E0A" points="714.7,282.4 683.1,323.4 671.9,323.4 701.3,282.4 			"/>
		</g>
		<g>
			<polygon fill="#F28E0A" points="781.6,282.4 739.2,323.4 727.9,323.4 768.2,282.4 			"/>
		</g>
		<g>
			<polygon fill="#F28E0A" points="762.5,360.5 722.1,389.6 710.6,389.6 748.7,360.5 			"/>
		</g>
		<g>
			<polygon fill="#F28E0A" points="748.7,360.5 710.6,389.6 699,389.6 734.8,360.5 			"/>
		</g>
		<g>
			<polygon points="780.2,269.9 780.9,276.1 781.6,282.4 768.2,282.4 754.8,282.4 758.6,320.8 762.5,360.5 748.7,360.5 734.8,360.5 
				731.4,320.8 728.1,282.4 714.7,282.4 701.3,282.4 700.8,276.1 700.3,269.9 740.3,269.9 			"/>
		</g>
	</g>
	<g enable-background="new    ">
		<g>
			<polygon fill="#864F06" points="626.6,312.8 626.8,318.1 627,323.4 632.6,323.4 638.3,323.4 638.5,328.8 638.8,334.2 
				627.5,334.2 616.3,334.2 616,328.8 615.8,323.4 604.6,323.4 593.4,323.4 593.7,334.2 594.1,345.1 616.7,345.1 639.3,345.1 
				639.6,350.6 639.8,356.1 645.5,356.1 651.2,356.1 651.8,367.1 652.4,378.3 646.6,378.3 640.9,378.3 641.2,383.9 641.5,389.6 
				612.7,389.6 583.9,389.6 583.7,383.9 583.6,378.3 577.9,378.3 572.1,378.3 572,372.7 571.9,367.1 583.3,367.1 594.7,367.1 
				594.9,372.7 595.1,378.3 612.3,378.3 629.4,378.3 629,367.1 628.5,356.1 605.8,356.1 583,356.1 582.9,350.6 582.8,345.1 
				577.1,345.1 571.4,345.1 571.2,334.2 571,323.4 576.6,323.4 582.2,323.4 582.1,318.1 581.9,312.8 604.3,312.8 			"/>
		</g>
		<g>
			<polygon fill="#F28E0A" points="620.4,269.9 647.1,269.9 626.6,312.8 604.3,312.8 			"/>
		</g>
		<g>
			<polygon fill="#F28E0A" points="593.8,269.9 620.4,269.9 604.3,312.8 581.9,312.8 			"/>
		</g>
		<g>
			<polygon fill="#F28E0A" points="654.4,282.4 661.1,282.4 638.3,323.4 632.6,323.4 			"/>
		</g>
		<g>
			<polygon fill="#F28E0A" points="634.3,282.4 615.8,323.4 604.6,323.4 621,282.4 			"/>
		</g>
		<g>
			<polygon fill="#F28E0A" points="621,282.4 604.6,323.4 593.4,323.4 607.6,282.4 			"/>
		</g>
		<g>
			<polygon fill="#F28E0A" points="580.8,282.4 587.5,282.4 576.6,323.4 571,323.4 			"/>
		</g>
		<g>
			<polygon fill="#F28E0A" points="587.5,282.4 594.2,282.4 582.2,323.4 576.6,323.4 			"/>
		</g>
		<g>
			<polygon fill="#F28E0A" points="647.7,282.4 654.4,282.4 632.6,323.4 627,323.4 			"/>
		</g>
		<g>
			<polygon fill="#F28E0A" points="661.9,295.1 638.8,334.2 627.5,334.2 648.4,295.1 			"/>
		</g>
		<g>
			<polygon fill="#F28E0A" points="648.4,295.1 627.5,334.2 616.3,334.2 634.9,295.1 			"/>
		</g>
		<g>
			<polygon fill="#F28E0A" points="635.6,307.9 662.6,307.9 639.3,345.1 616.7,345.1 			"/>
		</g>
		<g>
			<polygon fill="#F28E0A" points="595,307.9 582.8,345.1 577.1,345.1 588.2,307.9 			"/>
		</g>
		<g>
			<polygon fill="#F28E0A" points="588.2,307.9 577.1,345.1 571.4,345.1 581.4,307.9 			"/>
		</g>
		<g>
			<polygon fill="#F28E0A" points="608.5,307.9 635.6,307.9 616.7,345.1 594.1,345.1 			"/>
		</g>
		<g>
			<polygon fill="#F28E0A" points="649.8,320.8 628.5,356.1 605.8,356.1 622.6,320.8 			"/>
		</g>
		<g>
			<polygon fill="#F28E0A" points="622.6,320.8 605.8,356.1 583,356.1 595.4,320.8 			"/>
		</g>
		<g>
			<polygon fill="#F28E0A" points="670.2,320.8 677,320.8 651.2,356.1 645.5,356.1 			"/>
		</g>
		<g>
			<polygon fill="#F28E0A" points="663.4,320.8 670.2,320.8 645.5,356.1 639.8,356.1 			"/>
		</g>
		<g>
			<polygon fill="#F28E0A" points="595.8,333.9 609.4,333.9 594.7,367.1 583.3,367.1 			"/>
		</g>
		<g>
			<polygon fill="#F28E0A" points="582.1,333.9 595.8,333.9 583.3,367.1 571.9,367.1 			"/>
		</g>
		<g>
			<polygon fill="#F28E0A" points="630.5,347.1 651.2,347.1 629.4,378.3 612.3,378.3 			"/>
		</g>
		<g>
			<polygon fill="#F28E0A" points="671.8,347.1 646.6,378.3 640.9,378.3 664.9,347.1 			"/>
		</g>
		<g>
			<polygon fill="#F28E0A" points="589.3,347.1 577.9,378.3 572.1,378.3 582.4,347.1 			"/>
		</g>
		<g>
			<polygon fill="#F28E0A" points="609.9,347.1 630.5,347.1 612.3,378.3 595.1,378.3 			"/>
		</g>
		<g>
			<polygon fill="#F28E0A" points="678.7,347.1 652.4,378.3 646.6,378.3 671.8,347.1 			"/>
		</g>
		<g>
			<polygon fill="#F28E0A" points="596.2,347.1 583.6,378.3 577.9,378.3 589.3,347.1 			"/>
		</g>
		<g>
			<polygon fill="#F28E0A" points="665.7,360.5 641.5,389.6 612.7,389.6 631.1,360.5 			"/>
		</g>
		<g>
			<polygon points="647.1,269.9 647.4,276.1 647.7,282.4 654.4,282.4 661.1,282.4 661.5,288.7 661.9,295.1 648.4,295.1 634.9,295.1 
				634.6,288.7 634.3,282.4 621,282.4 607.6,282.4 608,295.1 608.5,307.9 635.6,307.9 662.6,307.9 663,314.3 663.4,320.8 
				670.2,320.8 677,320.8 677.8,333.9 678.7,347.1 671.8,347.1 664.9,347.1 665.3,353.8 665.7,360.5 631.1,360.5 596.6,360.5 
				596.4,353.8 596.2,347.1 589.3,347.1 582.4,347.1 582.3,340.5 582.1,333.9 595.8,333.9 609.4,333.9 609.7,340.5 609.9,347.1 
				630.5,347.1 651.2,347.1 650.5,333.9 649.8,320.8 622.6,320.8 595.4,320.8 595.2,314.3 595,307.9 588.2,307.9 581.4,307.9 
				581.1,295.1 580.8,282.4 587.5,282.4 594.2,282.4 594,276.1 593.8,269.9 620.4,269.9 			"/>
		</g>
		<g>
			<polygon fill="#F28E0A" points="631.1,360.5 612.7,389.6 583.9,389.6 596.6,360.5 			"/>
		</g>
	</g>
	<g enable-background="new    ">
		<g>
			<path fill="#864F06" d="M554.3,334.2h5.6l0.4,27.4l0.5,28h-11.5h-11.5l-0.1-11.3l-0.1-11.2h-17.1h-17.1l-0.1,11.2l-0.1,11.3
				h-11.5h-11.5l0.5-28l0.4-27.4h5.6h5.6l0.1-5.4l0.1-5.4h5.6h5.6l0-5.4l0-5.3h16.7h16.7l0,5.3l0,5.4h5.6h5.6l0.1,5.4l0.1,5.4H554.3
				z M537.5,345.1l-0.1-10.9h-5.6h-5.6l0-5.4l0-5.4h-5.6h-5.6l0,5.4l0,5.4h-5.6h-5.6l-0.1,10.9l-0.1,11h17h17L537.5,345.1"/>
		</g>
		<g>
			<polygon fill="#F28E0A" points="500.6,269.9 520.5,269.9 520.5,312.8 503.8,312.8 			"/>
		</g>
		<g>
			<polygon fill="#F28E0A" points="520.5,269.9 540.5,269.9 537.3,312.8 520.5,312.8 			"/>
		</g>
		<g>
			<polygon fill="#F28E0A" points="487.1,282.4 493.8,282.4 498.1,323.4 492.5,323.4 			"/>
		</g>
		<g>
			<polygon fill="#F28E0A" points="493.8,282.4 500.5,282.4 503.7,323.4 498.1,323.4 			"/>
		</g>
		<g>
			<polygon fill="#F28E0A" points="520.5,282.4 520.5,323.4 514.9,323.4 513.8,282.4 			"/>
		</g>
		<g>
			<polygon fill="#F28E0A" points="527.2,282.4 526.1,323.4 520.5,323.4 520.5,282.4 			"/>
		</g>
		<g>
			<polygon fill="#F28E0A" points="540.6,282.4 547.3,282.4 543,323.4 537.4,323.4 			"/>
		</g>
		<g>
			<polygon fill="#F28E0A" points="547.3,282.4 554,282.4 548.6,323.4 543,323.4 			"/>
		</g>
		<g>
			<polygon fill="#F28E0A" points="534,295.1 531.8,334.2 526.2,334.2 527.3,295.1 			"/>
		</g>
		<g>
			<polygon fill="#F28E0A" points="540.7,295.1 537.4,334.2 531.8,334.2 534,295.1 			"/>
		</g>
		<g>
			<polygon fill="#F28E0A" points="480.2,295.1 486.9,295.1 492.4,334.2 486.8,334.2 			"/>
		</g>
		<g>
			<polygon fill="#F28E0A" points="560.9,295.1 567.6,295.1 560,334.2 554.3,334.2 			"/>
		</g>
		<g>
			<polygon fill="#F28E0A" points="507.1,295.1 509.3,334.2 503.7,334.2 500.4,295.1 			"/>
		</g>
		<g>
			<polygon fill="#F28E0A" points="513.8,295.1 514.9,334.2 509.3,334.2 507.1,295.1 			"/>
		</g>
		<g>
			<polygon fill="#F28E0A" points="473.4,295.1 480.2,295.1 486.8,334.2 481.1,334.2 			"/>
		</g>
		<g>
			<polygon fill="#F28E0A" points="554.2,295.1 560.9,295.1 554.3,334.2 548.7,334.2 			"/>
		</g>
		<g>
			<polygon fill="#F28E0A" points="520.5,320.8 540.9,320.8 537.6,356.1 520.5,356.1 			"/>
		</g>
		<g>
			<polygon fill="#F28E0A" points="500.1,320.8 520.5,320.8 520.5,356.1 503.5,356.1 			"/>
		</g>
		<g>
			<polygon fill="#F28E0A" points="520.5,333.9 520.5,367.1 503.4,367.1 500,333.9 			"/>
		</g>
		<g>
			<polygon fill="#F28E0A" points="541.1,333.9 537.7,367.1 520.5,367.1 520.5,333.9 			"/>
		</g>
		<g>
			<polygon fill="#F28E0A" points="499.8,360.5 503.3,389.6 491.8,389.6 486,360.5 			"/>
		</g>
		<g>
			<path d="M560.9,295.1h6.7l0.6,32.3l0.7,33.1h-13.8h-13.8l-0.1-13.4l-0.1-13.2h-20.5H500l-0.1,13.2l-0.1,13.4H486h-13.8l0.7-33.1
				l0.6-32.3h6.7h6.7l0.1-6.3l0.1-6.3h6.7h6.7l0.1-6.3l0.1-6.2h20h20l0.1,6.2l0.1,6.3h6.7h6.7l0.1,6.3l0.1,6.3H560.9z M540.8,307.9
				l-0.1-12.8H534h-6.7l0-6.3l0-6.3h-6.7h-6.7l0,6.3l0,6.3h-6.7h-6.7l-0.1,12.8l-0.1,12.9h20.4h20.4L540.8,307.9"/>
		</g>
		<g>
			<polygon fill="#F28E0A" points="568.9,360.5 560.8,389.6 549.3,389.6 555.1,360.5 			"/>
		</g>
		<g>
			<polygon fill="#F28E0A" points="555.1,360.5 549.3,389.6 537.8,389.6 541.3,360.5 			"/>
		</g>
		<g>
			<polygon fill="#F28E0A" points="486,360.5 491.8,389.6 480.2,389.6 472.2,360.5 			"/>
		</g>
	</g>
</g>
</svg>
