<?xml version="1.0" encoding="utf-8"?>
<!-- Generator: Adobe Illustrator 18.0.0, SVG Export Plug-In . SVG Version: 6.00 Build 0)  -->
<!DOCTYPE svg PUBLIC "-//W3C//DTD SVG 1.1//EN" "http://www.w3.org/Graphics/SVG/1.1/DTD/svg11.dtd">
<svg version="1.1" id="Layer_1" xmlns="http://www.w3.org/2000/svg" xmlns:xlink="http://www.w3.org/1999/xlink" x="0px" y="0px"
	 viewBox="0 0 234 223" enable-background="new 0 0 234 223" xml:space="preserve">
<path fill="#F70821" d="M111.3,0L1.6,79.7l41.9,128.9h135.6L221,79.7L111.3,0z"/>
<path fill="#FFFFFF" d="M111.3,20.8L21.4,86.1l34.3,105.7h111.1l34.3-105.7L111.3,20.8z"/>
<path fill="#A5B5AD" d="M111.3,31.4l-79.8,58L62,183.2h98.7l30.5-93.8L111.3,31.4z"/>
<polyline fill="#888888" points="80.8,71.5 96.3,58.8 127.1,58.8 141.9,71.8 "/>
<polygon fill="#E6E6E6" points="80.6,74.1 96.3,87.5 96.3,171.8 80.6,158 "/>
<polygon fill="#999999" points="127.1,87.7 142,74.4 142,157.7 127.1,171.7 "/>
<polygon opacity="0.25" fill="#FFFFFF" enable-background="new    " points="80.8,121.2 96.4,112.2 127.4,112.2 142.2,104.8 
	142.2,97.8 127.4,105.3 96.4,105.3 80.8,114.2 "/>
<g>
	<polygon fill="#FFFFFF" points="109.6,72.7 110.4,73.3 93.2,79.4 87.2,74.5 92.5,72.6 80.7,72.6 96.5,86 126.8,86.3 142.2,72.7 	
		"/>
	<polygon fill="#FFFFFF" points="104.4,68.4 92.5,72.6 109.6,72.7 	"/>
</g>
</svg>
